<svg width="1920" height="1472" viewBox="0 0 1920 1472" fill="none" xmlns="http://www.w3.org/2000/svg">
<path opacity="0.4" d="M101.027 511.853H0V818.987H1920V155.06L1868 119L1706.06 190.706V598.895H1649.11V444.292L1592.65 397.04H1360.39V742.307H1241.04V535.064L1189.04 491.543H1082.07V742.307H966.19V317.459H855.754V419.837H776.518V263.99L718.576 240.779L547.227 286.787V696.299H366.964V491.543H235.233V376.316L195.615 348.131H101.027V511.853Z" fill="#F4F8FB"/>
<path d="M131.456 325.319L0 293.18V785.239H1920V427.928L1815.39 444.943V519.304H1763.55V284.862L1706.15 252.093L1538.59 284.862V621.393H1433.98V487.559L1385.84 464.873H1330.3H1274.75V606.773H1188.66V560.14H1115.53V656.557H999.807V517.288L949.817 492.081H849.836V606.773H751.707V560.14H660.984V345.533L617.473 319.065L454.542 359.397V443.1H409.18V579.171H322.16V494.097L284.204 468.259H131.456V325.319Z" fill="#F4F8FB"/>
<rect y="760" width="1920" height="712" fill="#F4F8FB"/>
</svg>
