<svg width="1920" height="327" viewBox="0 0 1920 327" fill="none" xmlns="http://www.w3.org/2000/svg">
<path opacity="0.4" d="M101.027 233.554H0V545.075H1920V44.6376L1868 1.01767L1796.06 0.75293V184.033H1649.11V87.1826L1592.65 30.0255H1470.39V184.333H1374V211.49H1315.5V239.252H1241.04V105.294L1189.04 52.6489H1082.07V143.641H956.19V276.753H855.754V277.19H776.518V82.5931L718.576 54.5159L497.227 110.169V396.667H366.964V231.457H235.233V98.9996H195.615H101.027V233.554Z" fill="#F4F8FB"/>
<path d="M0 242.057V480.401H1920V88.2957L1851 58.6719L1733.68 88.2957V223.341H1605.65V169.698L1554.83 130.456H1402.39V269.806H1321.19V205.303H1240H1139.35V124.734L1099.99 85.4919H998.858V198.926H894.738V198.682L800.581 199.682V278.478H722.865V278.699H638.672V215.713L557.966 176.471L396.554 215.713V267.195H290.5V308.53H184.328V135.227H65.7602V242.057H0Z" fill="#F4F8FB"/>
</svg>
