<svg width="1920" height="955" viewBox="0 0 1920 955" fill="none" xmlns="http://www.w3.org/2000/svg">
<path opacity="0.4" d="M101.027 413.793H0V837.4H1920V164.185L1868 114.45L1796.06 114.148V478.732H1649.11V265.499L1592.65 200.328H1470.39V456.083H1374V386.204H1315.5V456.083H1241.04V324.561L1189.04 264.535H1082.07V356.883H956.19V531.46H855.754V341.993H776.518V226.246L718.576 194.233L497.227 257.688V668.186H366.964V0H235.233V265.139H195.615H101.027V413.793Z" fill="#F4F8FB"/>
<rect y="731" width="1920" height="224" fill="#F4F8FB"/>
<path d="M0 389.283V763.659H1920V286.768L1851 252.991L1733.68 286.768V630.56H1605.65V378.181L1554.83 333.437H1402.39V446.715H1321.19V559.993H1240H1139.35V466.541L1099.99 421.797H998.858V672.928H894.738V537.79H800.581V399.594H722.865V553.679H638.672V366.627L557.966 321.884L396.554 366.627V520.563H290.5V567.692H184.328V207.475H65.7602V389.283H0Z" fill="#F4F8FB"/>
</svg>
