<svg width="1920" height="660" viewBox="0 0 1920 660" fill="none" xmlns="http://www.w3.org/2000/svg">
<path opacity="0.4" d="M101.027 392.853H0V699.987H1920V36.0603L1868 0L1706.06 71.706V479.895H1649.11V325.292L1592.65 278.04H1360.39V623.307H1241.04V416.064L1189.04 372.543H1082.07V623.307H966.19V198.459H855.754V300.837H776.518V144.99L718.576 121.779L547.227 167.787V577.299H366.964V372.543H235.233V257.316L195.615 229.131H101.027V392.853Z" fill="#F4F8FB"/>
<path d="M131.456 206.319L0 174.18V666.239H1920V308.928L1815.39 325.943V400.304H1763.55V165.862L1706.15 133.093L1538.59 165.862V502.393H1433.98V368.559L1385.84 345.873H1330.3H1274.75V487.773H1188.66V441.14H1115.53V537.557H999.807V398.288L949.817 373.081H849.836V487.773H751.707V441.14H660.984V226.533L617.473 200.065L454.542 240.397V324.1H409.18V460.171H322.16V375.097L284.204 349.259H131.456V206.319Z" fill="#F4F8FB"/>
</svg>
