<svg width="1920" height="556" viewBox="0 0 1920 556" fill="none" xmlns="http://www.w3.org/2000/svg">
<path opacity="0.4" d="M101.027 358.793H0V782.4H1920V109.185L1868 59.45L1796.06 59.1482V313.732H1649.11V180.499L1592.65 115.329H1470.39V371.083H1374V151.204H1315.5V331.083H1241.04V269.561L1189.04 209.535H1082.07V301.883H956.19V476.46H855.754V216.993H776.518V61.2463L718.576 29.2328L497.227 92.6881V613.186H366.964V345H235.233V0.13916H195.615H101.027V358.793Z" fill="#F4F8FB"/>
<path d="M0 334.283V708.659H1920V181.768L1851 147.991L1733.68 181.768V415.56H1605.65V263.181L1554.83 218.437H1402.39V331.715H1321.19V394.993H1240H1139.35V371.541L1099.99 326.797H998.858V421.929H894.738V422.79H800.581V284.594H722.865V478.679H638.672V201.627L557.966 156.884L396.554 201.627V465.563H290.5V512.692H184.328V212.475H65.7602V334.283H0Z" fill="#F4F8FB"/>
</svg>
