<svg width="1920" height="664" viewBox="0 0 1920 664" fill="none" xmlns="http://www.w3.org/2000/svg">
<path opacity="0.4" d="M1818.97 392.853H1920V699.987H0V36.0603L51.999 0L213.939 71.706V479.895H270.89V325.292L327.346 278.04H559.608V623.307H678.958V416.064L730.957 372.543H837.926V623.307H953.81V198.459H1064.25V300.837H1143.48V144.99L1201.42 121.779L1372.77 167.787V577.299H1553.04V372.543H1684.77V257.316L1724.38 229.131H1818.97V392.853Z" fill="#F4F8FB"/>
<path d="M1788.54 206.319L1920 174.18V666.239H0V308.928L104.609 325.943V400.304H156.451V165.863L213.848 133.093L381.408 165.863V502.393H486.017V368.559L534.156 345.873H589.701H645.246V487.773H731.34V441.14H804.474V537.558H920.193V398.288L970.183 373.081H1070.16V487.773H1168.29V441.14H1259.02V226.533L1302.53 200.065L1465.46 240.397V324.1H1510.82V460.171H1597.84V375.097L1635.8 349.26H1788.54V206.319Z" fill="#F4F8FB"/>
</svg>
