<svg width="1920" height="2510" viewBox="0 0 1920 2510" fill="none" xmlns="http://www.w3.org/2000/svg">
<path opacity="0.4" d="M101.027 314.693H0V686.214H1920V95.7767L1868 52.1568L1796.06 51.892V275.173H1649.11V158.322L1592.65 101.165H1470.39V325.472H1374V132.629H1315.5V290.391H1241.04V236.433L1189.04 183.788H1082.07V264.78H956.19V417.892H855.754V190.329H776.518V53.7322L718.576 25.655L497.227 81.308V537.806H366.964V302.596H235.233V0.138672H195.615H101.027V314.693Z" fill="#F4F8FB"/>
<rect y="593" width="1920" height="1917" fill="#F4F8FB"/>
<path d="M0 293.196V621.539H1920V159.434L1851 129.811L1733.68 159.434V364.479H1605.65V230.837L1554.83 191.595H1402.39V290.944H1321.19V346.442H1240H1139.35V325.873L1099.99 286.631H998.858V370.065H894.738V370.821H800.581V249.617H722.865V419.837H638.672V176.852L557.966 137.61L396.554 176.852V408.334H290.5V449.668H184.328V186.366H65.7602V293.196H0Z" fill="#F4F8FB"/>
</svg>
