<svg width="180" height="53" viewBox="0 0 180 53" fill="none" xmlns="http://www.w3.org/2000/svg">
<path d="M57.6866 29.8635C57.1983 29.3522 56.6171 28.9386 55.9741 28.6449C55.1068 28.244 54.2039 27.9253 53.2772 27.693C52.6389 27.5548 52.0122 27.368 51.4024 27.1342C51.0284 26.9879 50.6667 26.8119 50.3208 26.6078C50.1065 26.4591 49.931 26.2613 49.8088 26.0309C49.6916 25.8067 49.6194 25.5618 49.5961 25.3098C49.59 25.03 49.6518 24.7529 49.7764 24.5022C49.8974 24.2711 50.0732 24.0731 50.2883 23.9254C50.5371 23.7544 50.8161 23.6321 51.1104 23.5648C51.4775 23.4856 51.8525 23.4481 52.228 23.4531C52.7117 23.4623 53.1901 23.5563 53.6414 23.7307C54.164 23.9207 54.6664 24.1622 55.1412 24.4518C55.6286 24.7576 56.0851 25.1102 56.504 25.5045L58.743 23.0384C58.2183 22.4534 57.6007 21.9588 56.9151 21.5746C56.1923 21.1636 55.419 20.8484 54.6148 20.6372C53.7819 20.4168 52.9237 20.3064 52.0622 20.3092C51.2268 20.3058 50.3956 20.4273 49.5961 20.6697C48.8462 20.8901 48.1434 21.247 47.523 21.7225C46.9481 22.1622 46.4716 22.7173 46.1241 23.3521C45.7808 23.9937 45.6058 24.712 45.6157 25.4396C45.6108 26.0221 45.7047 26.6011 45.8933 27.1522C46.0782 27.6737 46.3636 28.1539 46.7334 28.5655C47.256 29.1329 47.8811 29.5965 48.5758 29.932C49.5206 30.3981 50.513 30.7607 51.5358 31.0136C52.1535 31.1539 52.7626 31.3297 53.3601 31.54C53.7229 31.6643 54.0701 31.8301 54.3949 32.0339C54.5869 32.1795 54.7409 32.3692 54.8438 32.587C54.9468 32.8048 54.9956 33.0443 54.9862 33.285C54.9915 33.5532 54.9295 33.8185 54.8059 34.0566C54.6824 34.294 54.509 34.5019 54.2975 34.6659C54.0674 34.8472 53.8041 34.9819 53.5224 35.0625C53.1961 35.153 52.8586 35.1967 52.5201 35.1923C51.6403 35.1971 50.7681 35.0293 49.953 34.6983C49.1021 34.3419 48.3474 33.7898 47.7501 33.0867L45.1182 35.3581C45.9061 36.3393 46.931 37.1037 48.0962 37.5791C49.4061 38.1121 50.8104 38.3746 52.2244 38.3506C53.3848 38.3686 54.5351 38.1336 55.5955 37.662C56.5393 37.2444 57.3564 36.5853 57.9642 35.7511C58.543 34.9475 58.8488 33.9796 58.8367 32.9894C58.8443 32.3973 58.7554 31.8079 58.5736 31.2444C58.397 30.7176 58.0922 30.2431 57.6866 29.8635Z" fill="#0D1E49"/>
<path d="M75.8797 22.7393C75.1508 21.9755 74.2785 21.3629 73.3126 20.9366C72.3075 20.4943 71.2199 20.2707 70.1218 20.2804C68.8991 20.2661 67.6857 20.4953 66.5525 20.9546C65.4946 21.3838 64.5407 22.0341 63.7547 22.8619C62.9629 23.7037 62.3432 24.692 61.9303 25.7715C61.4782 26.9591 61.2543 28.2215 61.2705 29.4922C61.2411 31.0878 61.6448 32.6615 62.4387 34.0459C63.2114 35.3716 64.334 36.4593 65.6836 37.1898C67.1643 37.9791 68.8228 38.3751 70.5004 38.3399C71.3343 38.3375 72.1644 38.2272 72.9701 38.0118C73.7934 37.8053 74.5923 37.5116 75.3533 37.1357C76.0904 36.7658 76.7723 36.2949 77.3795 35.7368L75.3713 32.9426C74.7259 33.5245 73.9889 33.9959 73.19 34.3379C72.4745 34.6065 71.7153 34.7398 70.9511 34.7309C69.897 34.7567 68.8526 34.5253 67.9081 34.0567C67.0632 33.6291 66.3642 32.9603 65.8999 32.135C65.5719 31.5538 65.3543 30.917 65.2581 30.2566H78.0429L78.0753 28.8433C78.1082 27.685 77.9248 26.5308 77.5345 25.4398C77.1751 24.4351 76.6117 23.5157 75.8797 22.7393ZM67.4214 24.5168C68.256 24.0741 69.192 23.8578 70.1362 23.8894C70.8042 23.8817 71.4643 24.0337 72.0615 24.3329C72.6324 24.6185 73.1268 25.0363 73.5037 25.5515C73.8812 26.0821 74.108 26.7051 74.1599 27.3542V27.5201H65.3555C65.4367 27.1057 65.5674 26.7026 65.7449 26.3195C66.0994 25.5567 66.6862 24.9256 67.4214 24.5168Z" fill="#0D1E49"/>
<path d="M85.7835 13.6753H81.7021V38.0226H85.7835V13.6753Z" fill="#0D1E49"/>
<path d="M94.6673 13.6753H90.5859V38.0226H94.6673V13.6753Z" fill="#0D1E49"/>
<path d="M114.973 31.8755L111.148 23.2838H108.71L104.91 32.0161L101.341 20.6519L97.1982 20.6843L103.021 38.0227H105.884L109.803 28.4071L113.909 38.0227H116.804L122.66 20.6843H118.517L114.973 31.8755Z" fill="#0D1E49"/>
<path d="M130.162 20.6843H126.117V38.0227H130.162V20.6843Z" fill="#0D1E49"/>
<path d="M128.089 16.9887C129.386 16.9887 130.436 15.9378 130.436 14.6416C130.436 13.3453 129.386 12.2944 128.089 12.2944C126.793 12.2944 125.742 13.3453 125.742 14.6416C125.742 15.9378 126.793 16.9887 128.089 16.9887Z" fill="#0D1E49"/>
<path d="M147.732 22.678C147.432 22.3484 147.1 22.0501 146.74 21.7875C146.104 21.3217 145.4 20.9568 144.653 20.7058C143.571 20.3486 142.424 20.2328 141.293 20.3667C140.162 20.5007 139.074 20.881 138.105 21.481C136.874 22.2717 135.878 23.3787 135.221 24.6862C134.5 26.1252 134.139 27.7173 134.168 29.3264C134.139 30.9434 134.511 32.5425 135.25 33.981C135.914 35.2797 136.909 36.3803 138.134 37.1717C139.367 37.9554 140.802 38.3615 142.262 38.3399C143.05 38.34 143.833 38.2122 144.581 37.9613C145.292 37.7332 145.964 37.395 146.571 36.959C147.039 36.6321 147.46 36.2427 147.822 35.8017L147.876 38.0226H151.788V13.6753H147.732V22.678ZM147.252 32.2323C146.878 33.0309 146.293 33.7126 145.561 34.2045C144.813 34.6766 143.946 34.9271 143.061 34.9271C142.176 34.9271 141.309 34.6766 140.561 34.2045C139.827 33.7138 139.241 33.0318 138.866 32.2323C138.465 31.3235 138.258 30.3412 138.258 29.348C138.258 28.3548 138.465 27.3725 138.866 26.4637C139.236 25.6609 139.823 24.9777 140.561 24.4915C141.313 24.0295 142.178 23.7849 143.061 23.7849C143.944 23.7849 144.809 24.0295 145.561 24.4915C146.297 24.9789 146.883 25.6619 147.252 26.4637C147.653 27.3725 147.86 28.3548 147.86 29.348C147.86 30.3412 147.653 31.3235 147.252 32.2323Z" fill="#0D1E49"/>
<path d="M172.075 28.8433C172.108 27.685 171.925 26.5308 171.534 25.4398C171.173 24.4345 170.607 23.515 169.872 22.7393C169.144 21.9755 168.271 21.3629 167.305 20.9366C166.3 20.4943 165.213 20.2707 164.115 20.2804C162.892 20.2661 161.678 20.4953 160.545 20.9546C159.487 21.3838 158.533 22.0341 157.747 22.8619C156.956 23.7037 156.336 24.692 155.923 25.7715C155.471 26.9591 155.247 28.2215 155.263 29.4922C155.234 31.0878 155.637 32.6615 156.431 34.0459C157.204 35.3716 158.327 36.4593 159.676 37.1898C161.157 37.9786 162.816 38.3746 164.493 38.3399C165.327 38.3377 166.157 38.2274 166.963 38.0118C167.787 37.7967 168.586 37.4933 169.346 37.1069C170.083 36.7369 170.765 36.2661 171.372 35.708L169.364 32.9138C168.713 33.5041 167.969 33.9817 167.161 34.3271C166.446 34.5957 165.686 34.729 164.922 34.7201C163.87 34.7486 162.827 34.521 161.883 34.0567C161.038 33.6291 160.339 32.9603 159.875 32.135C159.552 31.5528 159.339 30.916 159.247 30.2566H172.032L172.075 28.8433ZM161.4 24.5168C162.234 24.0741 163.17 23.8578 164.115 23.8894C164.782 23.8812 165.443 24.0333 166.04 24.3329C166.611 24.6185 167.105 25.0363 167.482 25.5515C167.859 26.0821 168.086 26.7051 168.138 27.3542V27.5201H159.359C159.44 27.1057 159.571 26.7026 159.748 26.3195C160.096 25.5604 160.674 24.9298 161.4 24.5168Z" fill="#0D1E49"/>
<path d="M37.745 23.0675H22.66L26.6187 5.96704L6.70605 28.7785H21.7911L17.8323 45.8789L37.745 23.0675Z" fill="#FA5D32"/>
</svg>
