<svg aria-hidden="true" style="position: absolute; width: 0; height: 0; overflow: hidden;" version="1.1" xmlns="http://www.w3.org/2000/svg" xmlns:xlink="http://www.w3.org/1999/xlink">
<defs>
<symbol id="i-location" viewBox="0 0 48 48">
<path fill="none" stroke="#62b954" style="stroke: var(--color1, #62b954)" stroke-linejoin="round" stroke-linecap="round" stroke-miterlimit="4" stroke-width="3.6" d="M9 20c0 8.822 10.028 18.332 13.686 21.508 0.758 0.658 1.872 0.658 2.63 0 3.656-3.176 13.684-12.686 13.684-21.508 0-7.732-6.716-14-15-14s-15 6.268-15 14v0z"></path>
<path fill="none" stroke="#62b954" style="stroke: var(--color1, #62b954)" stroke-linejoin="round" stroke-linecap="round" stroke-miterlimit="4" stroke-width="3.6" d="M24 15v12"></path>
<path fill="none" stroke="#62b954" style="stroke: var(--color1, #62b954)" stroke-linejoin="round" stroke-linecap="round" stroke-miterlimit="4" stroke-width="3.6" d="M30 21h-12"></path>
</symbol>
<symbol id="i-phone" viewBox="0 0 48 48">
<path fill="none" stroke="#62b954" style="stroke: var(--color1, #62b954)" stroke-linejoin="round" stroke-linecap="round" stroke-miterlimit="4" stroke-width="3.6" d="M32.654 26.726c-1.71 0-3.328-0.378-4.782-1.052l-6.99 1.484 1.462-7.004c-0.678-1.458-1.058-3.084-1.058-4.798 0-6.27 5.084-11.356 11.358-11.356s11.356 5.086 11.356 11.356-5.086 11.356-11.356 11.356"></path>
<path fill="none" stroke="#62b954" style="stroke: var(--color1, #62b954)" stroke-linejoin="round" stroke-linecap="round" stroke-miterlimit="4" stroke-width="3.6" d="M30.4 36.742l-1.94-1.94c-0.97-0.97-2.54-0.97-3.508 0l-1.524 1.524c-0.34 0.34-0.856 0.454-1.296 0.262-2.21-0.968-4.392-2.434-6.338-4.38-1.938-1.938-3.4-4.11-4.368-6.312-0.202-0.454-0.084-0.988 0.268-1.342l1.366-1.366c1.11-1.11 1.11-2.678 0.14-3.648l-1.942-1.94c-1.292-1.292-3.384-1.292-4.676 0l-1.078 1.078c-1.226 1.226-1.736 2.994-1.406 4.746 0.816 4.32 3.328 9.052 7.376 13.102s8.78 6.56 13.102 7.376c1.752 0.33 3.52-0.18 4.746-1.406l1.078-1.076c1.29-1.292 1.29-3.386 0-4.678v0z"></path>
<path fill="none" stroke="#62b954" style="stroke: var(--color1, #62b954)" stroke-linejoin="round" stroke-linecap="round" stroke-miterlimit="4" stroke-width="3.6" d="M35.586 15.6l-0.008 0.003-0.006 0.007-0.001 0.009 0.004 0.008 0.008 0.004 0.009-0.001 0.007-0.006 0.003-0.008-0.001-0.006-0.003-0.005-0.005-0.003-0.006-0.001z"></path>
<path fill="none" stroke="#62b954" style="stroke: var(--color1, #62b954)" stroke-linejoin="round" stroke-linecap="round" stroke-miterlimit="4" stroke-width="3.6" d="M29.615 15.606c-0.003 0-0.006 0.001-0.008 0.003s-0.004 0.004-0.006 0.007c-0.001 0.003-0.001 0.006-0.001 0.009s0.002 0.006 0.004 0.008c0.002 0.002 0.005 0.003 0.008 0.004s0.006 0 0.009-0.001c0.003-0.001 0.005-0.003 0.007-0.006s0.003-0.005 0.003-0.008c0-0.002-0-0.004-0.001-0.006s-0.002-0.004-0.003-0.005-0.003-0.003-0.005-0.003-0.004-0.001-0.006-0.001"></path>
</symbol>
<symbol id="i-clock" viewBox="0 0 48 48">
<path fill="none" stroke="#62b954" style="stroke: var(--color1, #62b954)" stroke-linejoin="round" stroke-linecap="round" stroke-miterlimit="4" stroke-width="3.6" d="M6 36h10"></path>
<path fill="none" stroke="#62b954" style="stroke: var(--color1, #62b954)" stroke-linejoin="round" stroke-linecap="round" stroke-miterlimit="4" stroke-width="3.6" d="M16 42h-6"></path>
<path fill="none" stroke="#62b954" style="stroke: var(--color1, #62b954)" stroke-linejoin="round" stroke-linecap="round" stroke-miterlimit="4" stroke-width="3.6" d="M24 42c3.56 0 7.040-1.056 10-3.033s5.267-4.789 6.63-8.078 1.719-6.908 1.024-10.4c-0.695-3.492-2.409-6.699-4.926-9.216s-5.725-4.232-9.216-4.926c-3.492-0.695-7.111-0.338-10.4 1.024s-6.1 3.669-8.078 6.63c-1.978 2.96-3.034 6.44-3.034 10 0.005 1.347 0.165 2.689 0.476 4"></path>
<path fill="none" stroke="#62b954" style="stroke: var(--color1, #62b954)" stroke-linejoin="round" stroke-linecap="round" stroke-miterlimit="4" stroke-width="3.6" d="M23.436 16v9.272l7.312 4.458"></path>
</symbol>
<symbol id="i-support" viewBox="0 0 48 48">
<path fill="none" stroke="#62b954" style="stroke: var(--color1, #62b954)" stroke-linejoin="round" stroke-linecap="round" stroke-miterlimit="4" stroke-width="3.6" d="M42 24c0 4.774-1.896 9.352-5.272 12.728s-7.954 5.272-12.728 5.272"></path>
<path fill="none" stroke="#62b954" style="stroke: var(--color1, #62b954)" stroke-linejoin="round" stroke-linecap="round" stroke-miterlimit="4" stroke-width="3.6" d="M6 24c0-4.774 1.896-9.352 5.272-12.728s7.954-5.272 12.728-5.272"></path>
<path fill="none" stroke="#62b954" style="stroke: var(--color1, #62b954)" stroke-linejoin="round" stroke-linecap="round" stroke-miterlimit="4" stroke-width="3.6" d="M6 24c0 2.108 0.375 4.2 1.108 6.177 0.162 0.445 0.476 0.819 0.885 1.056s0.89 0.323 1.357 0.243l1.972-0.348c0.767-0.135 1.451-0.563 1.908-1.194s0.651-1.414 0.541-2.185l-0.594-4.155c-0.057-0.398-0.193-0.781-0.401-1.125s-0.483-0.643-0.808-0.879c-0.326-0.236-0.695-0.404-1.087-0.495s-0.798-0.101-1.194-0.031l-3.521 0.621"></path>
<path fill="none" stroke="#62b954" style="stroke: var(--color1, #62b954)" stroke-linejoin="round" stroke-linecap="round" stroke-miterlimit="4" stroke-width="3.6" d="M42 24c0-4.774-1.896-9.352-5.272-12.728s-7.954-5.272-12.728-5.272"></path>
<path fill="none" stroke="#62b954" style="stroke: var(--color1, #62b954)" stroke-linejoin="round" stroke-linecap="round" stroke-miterlimit="4" stroke-width="3.6" d="M42 24c-0 2.108-0.375 4.2-1.107 6.177-0.162 0.445-0.476 0.819-0.885 1.056s-0.89 0.323-1.357 0.243l-1.972-0.348c-0.767-0.135-1.451-0.563-1.908-1.194s-0.651-1.414-0.541-2.185l0.594-4.155c0.057-0.398 0.193-0.781 0.401-1.125s0.483-0.643 0.808-0.879c0.326-0.236 0.695-0.404 1.087-0.495s0.798-0.101 1.194-0.031l3.521 0.621"></path>
<path fill="none" stroke="#62b954" style="stroke: var(--color1, #62b954)" stroke-linejoin="round" stroke-linecap="round" stroke-miterlimit="4" stroke-width="3.6" d="M26.985 24.982l-0.008 0.002-0.006 0.007-0.001 0.009 0.004 0.008 0.008 0.004 0.009-0.001 0.007-0.006 0.003-0.008-0.001-0.006-0.003-0.005-0.005-0.003-0.006-0.001z"></path>
<path fill="none" stroke="#62b954" style="stroke: var(--color1, #62b954)" stroke-linejoin="round" stroke-linecap="round" stroke-miterlimit="4" stroke-width="3.6" d="M21.015 24.988c-0.003 0-0.006 0.001-0.008 0.003s-0.004 0.004-0.006 0.007c-0.001 0.003-0.001 0.006-0.001 0.009s0.002 0.006 0.004 0.008c0.002 0.002 0.005 0.003 0.008 0.004s0.006 0 0.009-0.001c0.003-0.001 0.005-0.003 0.007-0.006s0.003-0.005 0.003-0.008c0-0.002-0-0.004-0.001-0.006s-0.002-0.003-0.003-0.005-0.003-0.003-0.005-0.003-0.004-0.001-0.006-0.001"></path>
</symbol>
</defs>
</svg>
