<svg aria-hidden="true" style="position: absolute; width: 0; height: 0; overflow: hidden;" version="1.1" xmlns="http://www.w3.org/2000/svg" xmlns:xlink="http://www.w3.org/1999/xlink">
<defs>
<symbol id="i-fb" viewBox="0 0 64 64">
<path fill="none" stroke="#2685c4" style="stroke: var(--color1, #2685c4)" stroke-linejoin="round" stroke-linecap="round" stroke-miterlimit="4" stroke-width="2.4" d="M29.6 34.4h14.4"></path>
<path fill="none" stroke="#2685c4" style="stroke: var(--color1, #2685c4)" stroke-linejoin="round" stroke-linecap="round" stroke-miterlimit="4" stroke-width="2.4" d="M44 22.4h-2.52c-3.909 0-7.080 3.171-7.080 7.080v26.52"></path>
<path fill="none" stroke="#0d1e49" style="stroke: var(--color2, #0d1e49)" stroke-linejoin="round" stroke-linecap="round" stroke-miterlimit="4" stroke-width="2.4" d="M20.8 8h24.011c6.621 0 11.189 0 11.189 0v48c0 0-4.568 0-11.189 0h-36.011c0 0 0-5.368 0-11.989v-36.011c0 0 5.373 0 12 0z"></path>
</symbol>
<symbol id="i-in" viewBox="0 0 64 64">
<path fill="none" stroke="#0d1e49" style="stroke: var(--color2, #0d1e49)" stroke-linejoin="round" stroke-linecap="round" stroke-miterlimit="4" stroke-width="2.4" d="M20 8h24.011c6.621 0 11.189 0 11.189 0v48c0 0-4.568 0-11.189 0h-36.011c0 0 0-5.368 0-11.989v-36.011c0 0 5.373 0 12 0z"></path>
<path fill="none" stroke="#2685c4" style="stroke: var(--color1, #2685c4)" stroke-linejoin="round" stroke-linecap="round" stroke-miterlimit="4" stroke-width="2.4" d="M31.25 43.999v-8.4c0-3.315 2.685-6 6-6s6 2.685 6 6v8.4"></path>
<path fill="none" stroke="#2685c4" style="stroke: var(--color1, #2685c4)" stroke-linejoin="round" stroke-linecap="round" stroke-miterlimit="4" stroke-width="2.4" d="M21.647 20.901c-0.331 0-0.6 0.269-0.597 0.6 0 0.331 0.269 0.6 0.6 0.6s0.6-0.269 0.6-0.6c0-0.333-0.269-0.6-0.603-0.6"></path>
<path fill="none" stroke="#2685c4" style="stroke: var(--color1, #2685c4)" stroke-linejoin="round" stroke-linecap="round" stroke-miterlimit="4" stroke-width="2.4" d="M21.653 29.6v14.4"></path>
</symbol>
<symbol id="i-ins" viewBox="0 0 64 64">
<path fill="none" stroke="#0d1e49" style="stroke: var(--color2, #0d1e49)" stroke-linejoin="round" stroke-linecap="round" stroke-miterlimit="4" stroke-width="2.4" d="M20 8h24.011c6.621 0 11.189 0 11.189 0v48c0 0-4.568 0-11.189 0h-36.011c0 0 0-5.368 0-11.989v-36.011c0 0 5.373 0 12 0z"></path>
<path fill="none" stroke="#2685c4" style="stroke: var(--color1, #2685c4)" stroke-linejoin="round" stroke-linecap="round" stroke-miterlimit="4" stroke-width="2.4" d="M38.788 25.212c3.749 3.749 3.749 9.827 0 13.576s-9.827 3.749-13.576 0c-3.749-3.749-3.749-9.827 0-13.576s9.827-3.749 13.576 0"></path>
<path fill="#2685c4" style="fill: var(--color1, #2685c4)" d="M47.2 18.8c0 1.105-0.895 2-2 2s-2-0.895-2-2c0-1.105 0.895-2 2-2s2 0.895 2 2z"></path>
</symbol>
<symbol id="i-tw" viewBox="0 0 64 64">
<path fill="none" stroke="#0d1e49" style="stroke: var(--color1, #0d1e49)" stroke-linejoin="round" stroke-linecap="round" stroke-miterlimit="4" stroke-width="2.4" d="M20 8h24.011c6.621 0 11.189 0 11.189 0v48c0 0-4.568 0-11.189 0h-36.011c0 0 0-5.368 0-11.989v-36.011c0 0 5.373 0 12 0z"></path>
<path fill="none" stroke="#2685c4" style="stroke: var(--color2, #2685c4)" stroke-linejoin="round" stroke-linecap="round" stroke-miterlimit="4" stroke-width="2.4" d="M21.467 39.334c0 0-4.749 1.592-4.8 1.6 3.2 3.866 6.933 5.836 13.333 5.466 13.867-0.8 17.022-13.645 15.2-19.2l3.467-3.866h-4.8c-1.304-1.976-3.192-3.2-6.4-3.2-4.712 0-7.848 3.379-8 8-3.957-0.963-7.632-4.339-9.6-8-4.149 5.795-3.744 13.797 1.6 19.2z"></path>
</symbol>
<symbol id="i-browser" viewBox="0 0 64 64">
<path fill="none" stroke="#2685c4" style="stroke: var(--color1, #2685c4)" stroke-linejoin="round" stroke-linecap="round" stroke-miterlimit="4" stroke-width="2.4" d="M18.667 34.667h26.667"></path>
<path fill="none" stroke="#2685c4" style="stroke: var(--color1, #2685c4)" stroke-linejoin="round" stroke-linecap="round" stroke-miterlimit="4" stroke-width="2.4" d="M18.667 45.333h26.667"></path>
<path fill="none" stroke="#0d1e49" style="stroke: var(--color2, #0d1e49)" stroke-linejoin="round" stroke-linecap="round" stroke-miterlimit="4" stroke-width="2.4" d="M8 21.333h47.877"></path>
<path fill="none" stroke="#0d1e49" style="stroke: var(--color2, #0d1e49)" stroke-linejoin="round" stroke-linecap="round" stroke-miterlimit="4" stroke-width="2.4" d="M13.333 8c-1.493 0-5.333 0-5.333 0s0 3.879 0 5.333v37.333c0 1.454 0 5.333 0 5.333s3.841 0 5.333 0h37.333c1.493 0 5.333 0 5.333 0s0-3.879 0-5.333v-37.333c0-1.454 0-5.333 0-5.333s-3.841 0-5.333 0h-37.333z"></path>
<path fill="#0d1e49" style="fill: var(--color2, #0d1e49)" d="M16.64 14.72c0 0.707-0.573 1.28-1.28 1.28s-1.28-0.573-1.28-1.28c0-0.707 0.573-1.28 1.28-1.28s1.28 0.573 1.28 1.28z"></path>
<path fill="#0d1e49" style="fill: var(--color2, #0d1e49)" d="M23.040 14.72c0 0.707-0.573 1.28-1.28 1.28s-1.28-0.573-1.28-1.28c0-0.707 0.573-1.28 1.28-1.28s1.28 0.573 1.28 1.28z"></path>
<path fill="#0d1e49" style="fill: var(--color2, #0d1e49)" d="M29.44 14.72c0 0.707-0.573 1.28-1.28 1.28s-1.28-0.573-1.28-1.28c0-0.707 0.573-1.28 1.28-1.28s1.28 0.573 1.28 1.28z"></path>
</symbol>
</defs>
</svg>
