<svg aria-hidden="true" style="position: absolute; width: 0; height: 0; overflow: hidden;" version="1.1" xmlns="http://www.w3.org/2000/svg" xmlns:xlink="http://www.w3.org/1999/xlink">
<defs>
<symbol id="i-user" viewBox="0 0 64 64">
<path fill="none" stroke="#0d1e49" style="stroke: var(--color1, #0d1e49)" stroke-linejoin="round" stroke-linecap="round" stroke-miterlimit="4" stroke-width="2.4" d="M55.877 56h-47.755v-40h47.755v40z"></path>
<path fill="none" stroke="#2685c4" style="stroke: var(--color2, #2685c4)" stroke-linejoin="round" stroke-linecap="round" stroke-miterlimit="4" stroke-width="2.4" d="M32.001 24c3.683 0 6.667 2.984 6.667 6.667s-2.984 6.667-6.667 6.667-6.667-2.984-6.667-6.667c0-3.683 2.984-6.667 6.667-6.667z"></path>
<path fill="none" stroke="#0d1e49" style="stroke: var(--color1, #0d1e49)" stroke-linejoin="round" stroke-linecap="round" stroke-miterlimit="4" stroke-width="2.4" d="M45.6 50.4l-3.2-6.4c-3.437 0-17.363 0-20.8 0l-3.2 6.4"></path>
<path fill="none" stroke="#0d1e49" style="stroke: var(--color1, #0d1e49)" stroke-linejoin="round" stroke-linecap="round" stroke-miterlimit="4" stroke-width="2.4" d="M12.753 16v-8h38.493v8"></path>
</symbol>
<symbol id="i-search" viewBox="0 0 64 64">
<path fill="none" stroke="#0d1e49" style="stroke: var(--color1, #0d1e49)" stroke-linejoin="round" stroke-linecap="round" stroke-miterlimit="4" stroke-width="2.4" d="M44.658 16.499c7.776 7.776 7.776 20.384 0 28.16s-20.384 7.776-28.16 0c-7.776-7.776-7.776-20.384 0-28.16s20.384-7.776 28.16 0z"></path>
<path fill="none" stroke="#2685c4" style="stroke: var(--color2, #2685c4)" stroke-linejoin="round" stroke-linecap="round" stroke-miterlimit="4" stroke-width="2.4" d="M21.147 34.373v-2.667"></path>
<path fill="none" stroke="#2685c4" style="stroke: var(--color2, #2685c4)" stroke-linejoin="round" stroke-linecap="round" stroke-miterlimit="4" stroke-width="2.4" d="M30 34.373v-5.333"></path>
<path fill="none" stroke="#2685c4" style="stroke: var(--color2, #2685c4)" stroke-linejoin="round" stroke-linecap="round" stroke-miterlimit="4" stroke-width="2.4" d="M38.853 34.373v-8"></path>
<path fill="none" stroke="#0d1e49" style="stroke: var(--color1, #0d1e49)" stroke-linejoin="round" stroke-linecap="round" stroke-miterlimit="4" stroke-width="2.4" d="M53.332 53.333l-8.667-8.667"></path>
</symbol>
<symbol id="i-list" viewBox="0 0 64 64">
<path fill="none" stroke="#0d1e49" style="stroke: var(--color1, #0d1e49)" stroke-linejoin="round" stroke-linecap="round" stroke-miterlimit="4" stroke-width="2.4" d="M18.668 56h34.667v-39.6l-8.934-8.4h-31.066v48h5.333z"></path>
<path fill="none" stroke="#0d1e49" style="stroke: var(--color1, #0d1e49)" stroke-linejoin="round" stroke-linecap="round" stroke-miterlimit="4" stroke-width="2.4" d="M53.27 21.333h-13.27v-13.27"></path>
<path fill="none" stroke="#2685c4" style="stroke: var(--color2, #2685c4)" stroke-linejoin="round" stroke-linecap="round" stroke-miterlimit="4" stroke-width="2.4" d="M42.666 32h-10"></path>
<path fill="none" stroke="#2685c4" style="stroke: var(--color2, #2685c4)" stroke-linejoin="round" stroke-linecap="round" stroke-miterlimit="4" stroke-width="2.4" d="M24.267 42.8c0 0.026-0.008 0.052-0.023 0.074s-0.035 0.039-0.060 0.049c-0.024 0.010-0.051 0.013-0.077 0.008s-0.050-0.018-0.068-0.037c-0.019-0.019-0.031-0.042-0.037-0.068s-0.003-0.053 0.008-0.077c0.010-0.024 0.027-0.045 0.049-0.060s0.048-0.023 0.074-0.023c0.017 0 0.035 0.003 0.051 0.010s0.031 0.017 0.043 0.029 0.022 0.027 0.029 0.043c0.007 0.016 0.010 0.034 0.010 0.051"></path>
<path fill="none" stroke="#2685c4" style="stroke: var(--color2, #2685c4)" stroke-linejoin="round" stroke-linecap="round" stroke-miterlimit="4" stroke-width="2.4" d="M24.267 32.133c0 0.026-0.008 0.052-0.023 0.074s-0.035 0.039-0.060 0.049c-0.024 0.010-0.051 0.013-0.077 0.008s-0.050-0.018-0.068-0.036-0.031-0.042-0.037-0.068c-0.005-0.026-0.003-0.053 0.008-0.077s0.027-0.045 0.049-0.060c0.022-0.015 0.048-0.023 0.074-0.023 0.017 0 0.035 0.003 0.051 0.010s0.031 0.017 0.043 0.029 0.022 0.027 0.029 0.043c0.007 0.016 0.010 0.033 0.010 0.051"></path>
<path fill="none" stroke="#2685c4" style="stroke: var(--color2, #2685c4)" stroke-linejoin="round" stroke-linecap="round" stroke-miterlimit="4" stroke-width="2.4" d="M42.666 42.667h-10"></path>
</symbol>
<symbol id="i-rocket" viewBox="0 0 64 64">
<path fill="none" stroke="#0d1e49" style="stroke: var(--color1, #0d1e49)" stroke-linejoin="round" stroke-linecap="round" stroke-miterlimit="4" stroke-width="2.4" d="M45.587 32.329l-14.391 11.513-2.396 1.758-8.447-9.245-1.953-2.355 13.269-15.588c5.265-6.581 21.663-10.412 21.663-10.412l3.468-0.8-0.801 3.467c0 0-3.831 16.398-10.412 21.663z"></path>
<path fill="none" stroke="#0d1e49" style="stroke: var(--color1, #0d1e49)" stroke-linejoin="round" stroke-linecap="round" stroke-miterlimit="4" stroke-width="2.4" d="M42.668 34.667v13.333l-7.917 3.959-2.751 1.242c-0.056-0.113-0.931-2.664-0.971-2.783l-1.694-5.083"></path>
<path fill="none" stroke="#0d1e49" style="stroke: var(--color1, #0d1e49)" stroke-linejoin="round" stroke-linecap="round" stroke-miterlimit="4" stroke-width="2.4" d="M18.666 34.667l-7.867-3.067 1.097-2.001c0.040-0.12 0.088-0.236 0.145-0.349l3.958-7.917h13.333"></path>
<path fill="none" stroke="#2685c4" style="stroke: var(--color2, #2685c4)" stroke-linejoin="round" stroke-linecap="round" stroke-miterlimit="4" stroke-width="2.4" d="M15.334 54.898l-7.334 1.102 1.102-7.334c0.357-2.379 2.225-4.247 4.604-4.604v0c2.992-0.45 5.782 1.612 6.232 4.604 0.081 0.54 0.081 1.089 0 1.628v0c-0.357 2.379-2.225 4.247-4.604 4.604v0z"></path>
</symbol>
<symbol id="i-chart" viewBox="0 0 64 64">
<path fill="none" stroke="#2685c4" style="stroke: var(--color2, #2685c4)" stroke-linejoin="round" stroke-linecap="round" stroke-miterlimit="4" stroke-width="2.4" d="M24.887 56h-14.221v-21.333h14.221"></path>
<path fill="none" stroke="#0d1e49" style="stroke: var(--color1, #0d1e49)" stroke-linejoin="round" stroke-linecap="round" stroke-miterlimit="4" stroke-width="2.4" d="M24.887 8h14.221v48h-14.221v-48z"></path>
<path fill="none" stroke="#0d1e49" style="stroke: var(--color1, #0d1e49)" stroke-linejoin="round" stroke-linecap="round" stroke-miterlimit="4" stroke-width="2.4" d="M39.112 21.333h14.221v34.667h-14.221"></path>
</symbol>
<symbol id="i-hex" viewBox="0 0 64 64">
<path fill="none" stroke="#2685c4" style="stroke: var(--color2, #2685c4)" stroke-linejoin="round" stroke-linecap="round" stroke-miterlimit="4" stroke-width="2.4" d="M36.596 29.824v-3.405c0-2.411-2.056-4.595-4.595-4.595s-4.595 2.056-4.595 4.595v3.405"></path>
<path fill="none" stroke="#0d1e49" style="stroke: var(--color1, #0d1e49)" stroke-linejoin="round" stroke-linecap="round" stroke-miterlimit="4" stroke-width="2.4" d="M37.403 40.491h-13.403c0 0 0-1.163 0-2.597v-5.472c0-1.435 0-2.597 0-2.597h13.403c1.435 0 2.597 0 2.597 0v10.667c0 0-1.163 0-2.597 0z"></path>
<path fill="none" stroke="#0d1e49" style="stroke: var(--color1, #0d1e49)" stroke-linejoin="round" stroke-linecap="round" stroke-miterlimit="4" stroke-width="2.4" d="M56 42.776v-24.776l-2.667-1.395-18.667-10.776-2.667-1.429-2.667 1.429-18.667 10.773-2.667 1.397c0 0 0 3.212 0 3.224v24.376l2.667 1.797 18.667 10.776 2.667 1.427 2.667-1.427 18.667-10.776 2.667-1.397v-3.224z"></path>
</symbol>
<symbol id="i-laptop" viewBox="0 0 64 64">
<path fill="none" stroke="#0d1e49" style="stroke: var(--color1, #0d1e49)" stroke-linejoin="round" stroke-linecap="round" stroke-miterlimit="4" stroke-width="2.4" d="M53.333 45.333h-11.907v2.267l-2.626 1.731h-18.8l-2.763-1.731v-2.267h-11.904v10.667h48v-10.667z"></path>
<path fill="none" stroke="#0d1e49" style="stroke: var(--color1, #0d1e49)" stroke-linejoin="round" stroke-linecap="round" stroke-miterlimit="4" stroke-width="2.4" d="M29.333 13.333h-21.333v32"></path>
<path fill="none" stroke="#0d1e49" style="stroke: var(--color1, #0d1e49)" stroke-linejoin="round" stroke-linecap="round" stroke-miterlimit="4" stroke-width="2.4" d="M50.667 45.333v-10.667"></path>
<path fill="none" stroke="#2685c4" style="stroke: var(--color2, #2685c4)" stroke-linejoin="round" stroke-linecap="round" stroke-miterlimit="4" stroke-width="2.4" d="M52.667 23.173l6 6.16"></path>
<path fill="none" stroke="#2685c4" style="stroke: var(--color2, #2685c4)" stroke-linejoin="round" stroke-linecap="round" stroke-miterlimit="4" stroke-width="2.4" d="M52.674 10.603c3.471 3.471 3.471 9.099 0 12.57s-9.099 3.471-12.569 0c-3.471-3.471-3.471-9.099 0-12.569s9.099-3.471 12.569 0"></path>
</symbol>
<symbol id="i-browser" viewBox="0 0 64 64">
<path fill="none" stroke="#2685c4" style="stroke: var(--color2, #2685c4)" stroke-linejoin="round" stroke-linecap="round" stroke-miterlimit="4" stroke-width="2.4" d="M18.667 34.667h26.667"></path>
<path fill="none" stroke="#2685c4" style="stroke: var(--color2, #2685c4)" stroke-linejoin="round" stroke-linecap="round" stroke-miterlimit="4" stroke-width="2.4" d="M18.667 45.333h26.667"></path>
<path fill="none" stroke="#0d1e49" style="stroke: var(--color1, #0d1e49)" stroke-linejoin="round" stroke-linecap="round" stroke-miterlimit="4" stroke-width="2.4" d="M8 21.333h47.877"></path>
<path fill="none" stroke="#0d1e49" style="stroke: var(--color1, #0d1e49)" stroke-linejoin="round" stroke-linecap="round" stroke-miterlimit="4" stroke-width="2.4" d="M13.333 8c-1.493 0-5.333 0-5.333 0s0 3.879 0 5.333v37.333c0 1.454 0 5.333 0 5.333s3.841 0 5.333 0h37.333c1.493 0 5.333 0 5.333 0s0-3.879 0-5.333v-37.333c0-1.454 0-5.333 0-5.333s-3.841 0-5.333 0h-37.333z"></path>
<path fill="#0d1e49" style="fill: var(--color1, #0d1e49)" d="M16.64 14.72c0 0.707-0.573 1.28-1.28 1.28s-1.28-0.573-1.28-1.28c0-0.707 0.573-1.28 1.28-1.28s1.28 0.573 1.28 1.28z"></path>
<path fill="#0d1e49" style="fill: var(--color1, #0d1e49)" d="M23.040 14.72c0 0.707-0.573 1.28-1.28 1.28s-1.28-0.573-1.28-1.28c0-0.707 0.573-1.28 1.28-1.28s1.28 0.573 1.28 1.28z"></path>
<path fill="#0d1e49" style="fill: var(--color1, #0d1e49)" d="M29.44 14.72c0 0.707-0.573 1.28-1.28 1.28s-1.28-0.573-1.28-1.28c0-0.707 0.573-1.28 1.28-1.28s1.28 0.573 1.28 1.28z"></path>
</symbol>
</defs>
</svg>
